<?xml version="1.0" encoding="UTF-8" standalone="no"?>
<!-- Created with Inkscape (http://www.inkscape.org/) -->

<svg
   width="512"
   height="512"
   viewBox="0 0 135.46666 135.46667"
   version="1.1"
   id="svg1"
   sodipodi:docname="profile-metrics-logo.svg"
   inkscape:version="1.3 (0e150ed6c4, 2023-07-21)"
   inkscape:export-filename="profile-metrics-logo.png"
   inkscape:export-xdpi="96"
   inkscape:export-ydpi="96"
   xmlns:inkscape="http://www.inkscape.org/namespaces/inkscape"
   xmlns:sodipodi="http://sodipodi.sourceforge.net/DTD/sodipodi-0.dtd"
   xmlns="http://www.w3.org/2000/svg"
   xmlns:svg="http://www.w3.org/2000/svg">
  <sodipodi:namedview
     id="namedview1"
     pagecolor="#505050"
     bordercolor="#ffffff"
     borderopacity="1"
     inkscape:showpageshadow="0"
     inkscape:pageopacity="0"
     inkscape:pagecheckerboard="1"
     inkscape:deskcolor="#505050"
     inkscape:document-units="px"
     showguides="true"
     inkscape:zoom="1.0242632"
     inkscape:cx="141.07702"
     inkscape:cy="211.37145"
     inkscape:window-width="1920"
     inkscape:window-height="1009"
     inkscape:window-x="1912"
     inkscape:window-y="-8"
     inkscape:window-maximized="1"
     inkscape:current-layer="layer1"
     inkscape:export-bgcolor="#ffffff00">
    <sodipodi:guide
       position="66.688435,66.688435"
       orientation="-0.70711039,-0.70710317"
       id="guide19"
       inkscape:locked="false" />
    <sodipodi:guide
       position="67.477017,66.278124"
       orientation="0.17364408,0.98480848"
       id="guide20"
       inkscape:locked="false" />
    <sodipodi:guide
       position="65.087499,159.21206"
       orientation="-1,0"
       id="guide21"
       inkscape:locked="false"
       inkscape:label=""
       inkscape:color="rgb(0,134,229)" />
    <sodipodi:guide
       position="28.045831,56.091659"
       orientation="0,-1"
       id="guide22"
       inkscape:locked="false" />
    <sodipodi:guide
       position="43.920831,87.841672"
       orientation="0,-1"
       id="guide23"
       inkscape:locked="false" />
    <sodipodi:guide
       position="59.79583,71.966671"
       orientation="0,-1"
       id="guide24"
       inkscape:locked="false" />
    <sodipodi:guide
       position="75.670831,45.508331"
       orientation="0,-1"
       id="guide25"
       inkscape:locked="false" />
    <sodipodi:guide
       position="91.545845,98.425001"
       orientation="0,-1"
       id="guide26"
       inkscape:locked="false" />
    <sodipodi:guide
       position="107.42084,109.00833"
       orientation="0,-1"
       id="guide27"
       inkscape:locked="false" />
    <sodipodi:guide
       position="54.504164,60.760026"
       orientation="1,0"
       id="guide28"
       inkscape:locked="false" />
    <sodipodi:guide
       position="38.629164,78.112425"
       orientation="1,0"
       id="guide29"
       inkscape:locked="false" />
    <sodipodi:guide
       position="33.337497,3.7710947"
       orientation="1,0"
       id="guide30"
       inkscape:locked="false" />
    <sodipodi:guide
       position="22.754165,7.2415745"
       orientation="1,0"
       id="guide31"
       inkscape:locked="false" />
    <sodipodi:guide
       position="67.733332,103.62925"
       orientation="-1,0"
       id="guide55"
       inkscape:locked="false"
       inkscape:label=""
       inkscape:color="rgb(0,134,229)" />
    <sodipodi:guide
       position="67.73333,67.733332"
       orientation="0,1"
       id="guide56"
       inkscape:locked="false"
       inkscape:label=""
       inkscape:color="rgb(0,134,229)" />
  </sodipodi:namedview>
  <defs
     id="defs1" />
  <g
     inkscape:label="Layer 1"
     inkscape:groupmode="layer"
     id="layer1">
    <path
       style="fill:#ff0000;stroke-width:1;stroke-linecap:round;fill-opacity:1"
       d="M 113.50573,77.304324 V 117.29568 A 67.73333,67.73333 0 0 0 134.00577,80.919091 Z"
       id="path55" />
    <path
       style="fill:#ff0101;stroke-width:1;stroke-linecap:round;fill-opacity:1"
       d="m 97.630732,74.505529 v 53.660811 a 67.73333,67.73333 0 0 0 3.705198,-1.83814 V 75.158719 Z"
       id="path54" />
    <path
       style="fill:#ff0000;stroke-width:1;stroke-linecap:round;fill-opacity:1"
       d="m 65.880732,67.970527 v 67.362293 a 67.73333,67.73333 0 0 0 1.8526,0.13384 67.73333,67.73333 0 0 0 1.852601,-0.13539 V 89.958849 89.164065 h 12.169799 v 44.589005 a 67.73333,67.73333 0 0 0 3.7052,-0.77256 V 72.359407 L 67.017614,69.107409 Z"
       id="path53" />
    <path
       style="fill:#ff0000;stroke-width:1;stroke-linecap:round;fill-opacity:1"
       d="m 50.005733,52.095528 v 80.901522 a 67.73333,67.73333 0 0 0 3.7052,0.76946 V 63.499999 62.707283 h 6.906555 z"
       id="path52" />
    <path
       style="fill:#ff0000;stroke-width:1;stroke-linecap:round;fill-opacity:1"
       d="M 18.915641,21.005436 A 67.73333,67.73333 0 0 0 0,67.733332 67.73333,67.73333 0 0 0 21.960933,117.50652 V 79.374999 78.582283 h 12.1698 v 47.779507 a 67.73333,67.73333 0 0 0 3.7052,1.83348 V 47.624999 46.832283 h 6.906555 z"
       id="path51" />
    <path
       style="fill:#00ff11;stroke-width:1;stroke-linecap:round;fill-opacity:1"
       d="M 66.255903,0.10541992 A 67.73333,67.73333 0 0 0 21.005436,18.915641 l 27.916642,27.916642 h 1.083655 v 1.083655 l 14.791345,14.791345 h 1.083654 v 1.083655 l 0.375171,0.37517 z"
       id="path50" />
    <path
       style="fill:#1f00ff;stroke-width:1;stroke-linecap:round;fill-opacity:1"
       d="M 69.210762,0.0361735 V 66.493615 l 16.25017,2.865458 V 37.041149 36.247916 h 12.1698 v 35.256762 l 3.705198,0.653191 V 26.45885 25.664066 h 12.1698 v 48.639925 l 21.12843,3.725354 A 67.73333,67.73333 0 0 0 135.46666,67.733332 67.73333,67.73333 0 0 0 69.210762,0.0361735 Z"
       id="path1" />
    <g
       id="rect7"
       style="fill:#ff9800;fill-opacity:1">
      <path
         id="path43"
         style="color:#000000;display:inline;fill:#ff9800;stroke-linecap:round;-inkscape-stroke:none;paint-order:stroke fill markers;fill-opacity:1"
         d="M 54.504166 63.499999 L 54.504166 133.99647 A 67.73333 67.73333 0 0 0 65.087499 135.27753 L 65.087499 63.499999 L 54.504166 63.499999 z " />
    </g>
    <g
       id="rect10"
       style="fill:#ffee00;fill-opacity:1">
      <path
         id="path41"
         style="color:#000000;display:inline;fill:#ffee00;stroke-linecap:round;-inkscape-stroke:none;paint-order:stroke fill markers;fill-opacity:1"
         d="M 38.629166 47.624999 L 38.629166 128.81746 A 67.73333 67.73333 0 0 0 49.212499 132.84512 L 49.212499 47.624999 L 38.629166 47.624999 z " />
    </g>
    <g
       id="rect13"
       style="fill:#ff00cb;fill-opacity:1"
       inkscape:label="rect13">
      <path
         id="path39"
         style="color:#000000;display:inline;fill:#ff00cb;stroke-linecap:round;-inkscape-stroke:none;paint-order:stroke fill markers;fill-opacity:1"
         d="M 22.754166 79.374999 L 22.754166 118.29975 A 67.73333 67.73333 0 0 0 33.3375 125.92823 L 33.3375 79.374999 L 22.754166 79.374999 z " />
    </g>
    <g
       id="rect14"
       style="fill:#5ec94c;fill-opacity:1">
      <path
         id="path49"
         style="color:#000000;display:inline;fill:#5ec94c;stroke-linecap:round;-inkscape-stroke:none;paint-order:stroke fill markers;fill-opacity:1"
         d="M 102.12917 26.458333 L 102.12917 125.92823 A 67.73333 67.73333 0 0 0 112.7125 118.29975 L 112.7125 26.458333 L 102.12917 26.458333 z " />
    </g>
    <g
       id="rect15"
       style="fill:#b700ff;fill-opacity:1">
      <path
         id="path47"
         style="color:#000000;display:inline;fill:#b700ff;stroke-linecap:round;-inkscape-stroke:none;paint-order:stroke fill markers;fill-opacity:1"
         d="M 86.254166 37.041666 L 86.254166 132.84512 A 67.73333 67.73333 0 0 0 96.837499 128.81746 L 96.837499 37.041666 L 86.254166 37.041666 z " />
    </g>
    <g
       id="rect16"
       style="fill:#00ffff;fill-opacity:1">
      <path
         id="path45"
         style="color:#000000;display:inline;fill:#00ffff;stroke-linecap:round;-inkscape-stroke:none;paint-order:stroke fill markers;fill-opacity:1"
         d="M 70.379166 89.958332 L 70.379166 135.27753 A 67.73333 67.73333 0 0 0 80.962499 133.99647 L 80.962499 89.958332 L 70.379166 89.958332 z " />
    </g>
  </g>
</svg>
